<svg version="1.0" xmlns="http://www.w3.org/2000/svg"
 width="428.000000pt" height="535.000000pt" viewBox="0 0 428.000000 535.000000"
 preserveAspectRatio="xMidYMid meet" style="background-color: #F0F0F0;">

<g transform="translate(0.000000,535.000000) scale(0.100000,-0.100000)"
fill="#000000" stroke="none">
<path d="M1982 5339 c-9 -3 -48 -9 -87 -13 -156 -16 -410 -82 -565 -147 -128
-54 -402 -206 -430 -239 -3 -3 -34 -28 -70 -55 -236 -180 -450 -438 -595 -719
-111 -215 -201 -522 -220 -747 -9 -104 -13 -451 -5 -439 3 6 14 -42 24 -105
75 -508 328 -961 721 -1295 72 -60 254 -188 312 -219 l23 -12 2 -342 3 -342
1025 0 1025 0 3 342 2 342 23 12 c165 88 386 270 573 473 13 15 124 157 149
193 123 173 253 458 310 680 22 87 32 148 64 408 10 79 9 132 -8 290 -29 273
-91 497 -206 741 -39 83 -128 239 -145 254 -3 3 -14 19 -24 35 -73 117 -268
326 -406 435 -36 28 -72 56 -80 63 -8 7 -58 40 -110 73 -245 158 -517 262
-819 311 -101 16 -460 32 -489 22z m342 -59 c476 -35 974 -269 1301 -611 469
-491 680 -1173 559 -1806 -70 -369 -211 -667 -459 -973 -25 -31 -232 -238
-265 -265 -73 -60 -156 -118 -245 -173 -55 -34 -106 -66 -112 -72 -10 -8 -13
-86 -14 -318 -1 -169 -1 -316 0 -327 2 -20 -4 -20 -216 -18 -120 2 -279 3
-353 2 -74 0 -144 0 -155 0 -187 0 -869 -1 -1017 -2 l-198 -2 0 327 c0 249 -3
330 -12 338 -7 6 -51 33 -97 60 -186 110 -377 275 -505 435 -187 233 -289 421
-376 690 -74 229 -106 465 -97 719 7 206 35 370 98 561 151 466 453 852 879
1126 90 58 288 154 400 194 190 68 313 93 580 118 73 7 179 6 304 -3z"/>
<path d="M2034 4518 c-91 -94 -171 -188 -230 -268 -49 -65 -154 -226 -154
-234 0 -3 -14 -28 -31 -56 -17 -28 -29 -53 -26 -56 2 -3 15 11 27 31 32 52 36
36 5 -25 -14 -29 -25 -54 -22 -56 2 -2 13 15 26 39 33 64 52 96 99 165 23 35
42 67 42 72 0 5 3 10 8 12 4 2 27 30 52 63 62 84 142 178 222 260 l68 70 43
-45 c23 -25 64 -72 92 -103 27 -32 51 -53 53 -47 5 15 22 12 22 -4 0 -8 7 -17
15 -20 14 -5 13 -1 -2 24 -10 17 -23 28 -30 26 -6 -3 -10 1 -7 7 2 7 -30 55
-73 107 -88 109 -98 120 -111 120 -4 0 -44 -37 -88 -82z m-322 -460 c-7 -7
-12 -8 -12 -2 0 14 12 26 19 19 2 -3 -1 -11 -7 -17z m-30 -40 c-7 -7 -12 -8
-12 -2 0 14 12 26 19 19 2 -3 -1 -11 -7 -17z"/>
<path d="M2336 4287 c3 -10 9 -15 12 -12 3 3 0 11 -7 18 -10 9 -11 8 -5 -6z"/>
<path d="M1576 3871 c-4 -7 -5 -15 -2 -18 9 -9 19 4 14 18 -4 11 -6 11 -12 0z"/>
<path d="M2131 3432 c-5 -27 -13 -78 -17 -114 -6 -56 -4 -65 10 -65 11 0 15 6
11 15 -4 12 -3 12 9 3 11 -10 15 0 20 56 4 38 12 83 18 101 11 37 11 37 -19
46 -19 6 -22 2 -32 -42z"/>
<path d="M2101 3204 c0 -11 3 -14 6 -6 3 7 2 16 -1 19 -3 4 -6 -2 -5 -13z"/>
<path d="M1920 2171 c0 -6 4 -13 10 -16 6 -3 7 1 4 9 -7 18 -14 21 -14 7z"/>
<path d="M1522 1555 c-24 -30 -27 -95 -6 -121 14 -18 15 -18 5 2 -14 29 -11
85 5 111 9 14 26 23 51 26 l38 4 -37 1 c-28 2 -41 -4 -56 -23z"/>
<path d="M1718 1573 c18 -2 45 -2 60 0 15 2 0 4 -33 4 -33 0 -45 -2 -27 -4z"/>
<path d="M1840 1570 c0 -5 5 -10 11 -10 5 0 7 5 4 10 -3 6 -8 10 -11 10 -2 0
-4 -4 -4 -10z"/>
<path d="M1963 1525 c0 -33 2 -45 4 -27 2 18 2 45 0 60 -2 15 -4 0 -4 -33z"/>
<path d="M2080 1572 c0 -4 19 -6 43 -4 70 5 76 10 15 11 -32 0 -58 -2 -58 -7z"/>
<path d="M2221 1558 c1 -19 2 -20 6 -5 4 16 13 18 53 15 26 -1 46 0 43 5 -2 4
-26 7 -54 7 -45 0 -49 -2 -48 -22z"/>
<path d="M2491 1558 c-4 -13 -12 -34 -16 -47 -6 -21 -5 -22 8 -10 8 8 13 17
10 21 -2 5 0 16 6 25 9 16 11 15 20 -9 14 -38 23 -36 9 2 -13 40 -26 46 -37
18z"/>
<path d="M2720 1572 c0 -4 19 -6 43 -4 70 5 76 10 15 11 -32 0 -58 -2 -58 -7z"/>
<path d="M2872 1510 l1 -75 7 65 c4 36 3 69 -2 75 -4 5 -7 -25 -6 -65z"/>
<path d="M1271 1493 c0 -45 2 -84 7 -86 4 -3 6 23 4 56 -5 104 -9 116 -11 30z"/>
<path d="M1452 1545 c0 -16 2 -22 5 -12 2 9 2 23 0 30 -3 6 -5 -1 -5 -18z"/>
<path d="M2021 1554 c0 -11 3 -14 6 -6 3 7 2 16 -1 19 -3 4 -6 -2 -5 -13z"/>
<path d="M2993 1530 c0 -25 2 -35 4 -22 2 12 2 32 0 45 -2 12 -4 2 -4 -23z"/>
<path d="M2082 1530 c0 -14 2 -19 5 -12 2 6 2 18 0 25 -3 6 -5 1 -5 -13z"/>
<path d="M2342 1530 c0 -14 2 -19 5 -12 2 6 2 18 0 25 -3 6 -5 1 -5 -13z"/>
<path d="M2722 1530 c0 -14 2 -19 5 -12 2 6 2 18 0 25 -3 6 -5 1 -5 -13z"/>
<path d="M1843 1465 c0 -33 2 -45 4 -27 2 18 2 45 0 60 -2 15 -4 0 -4 -33z"/>
<path d="M2393 1465 c0 -33 2 -45 4 -27 2 18 2 45 0 60 -2 15 -4 0 -4 -33z"/>
<path d="M2314 1496 c-8 -8 -7 -14 3 -21 13 -10 20 -30 22 -65 1 -13 3 -13 10
-1 6 9 6 22 -1 35 -6 11 -14 30 -17 42 -4 15 -9 18 -17 10z"/>
<path d="M1391 1480 c19 -39 51 -80 60 -74 4 2 -2 14 -14 27 -12 12 -30 33
-40 47 l-18 25 12 -25z"/>
<path d="M1738 1493 c12 -2 30 -2 40 0 9 3 -1 5 -23 4 -22 0 -30 -2 -17 -4z"/>
<path d="M2118 1493 c12 -2 32 -2 45 0 12 2 2 4 -23 4 -25 0 -35 -2 -22 -4z"/>
<path d="M2222 1448 l2 -53 3 47 c3 39 7 46 21 42 14 -5 15 -4 2 5 -26 19 -30
12 -28 -41z"/>
<path d="M2541 1488 c-1 -13 -10 -18 -33 -19 -31 -2 -31 -2 7 -8 22 -4 41 -6
43 -5 1 0 -2 12 -7 25 -7 17 -10 19 -10 7z"/>
<path d="M2720 1492 c0 -4 17 -6 38 -4 58 5 62 10 10 11 -27 1 -48 -3 -48 -7z"/>
<path d="M1593 1483 c9 -2 25 -2 35 0 9 3 1 5 -18 5 -19 0 -27 -2 -17 -5z"/>
<path d="M1451 1464 c0 -11 3 -14 6 -6 3 7 2 16 -1 19 -3 4 -6 -2 -5 -13z"/>
<path d="M2456 1463 c-6 -14 -5 -15 5 -6 7 7 10 15 7 18 -3 3 -9 -2 -12 -12z"/>
<path d="M2991 1451 c-1 -30 -3 -32 -18 -20 -13 10 -13 8 2 -10 20 -23 20 -23
23 -2 2 11 1 31 -1 44 -3 15 -5 12 -6 -12z"/>
<path d="M2722 1450 c0 -14 2 -19 5 -12 2 6 2 18 0 25 -3 6 -5 1 -5 -13z"/>
<path d="M1620 1425 c-9 -10 -9 -15 -1 -15 6 0 11 6 12 13 0 6 4 3 9 -8 8 -19
9 -19 9 3 1 25 -11 29 -29 7z"/>
<path d="M2437 1421 c-4 -17 -3 -21 5 -13 5 5 8 16 6 23 -3 8 -7 3 -11 -10z"/>
<path d="M2560 1433 c0 -4 5 -15 10 -23 8 -13 10 -13 10 2 0 9 -4 20 -10 23
-5 3 -10 3 -10 -2z"/>
<path d="M1950 1421 c0 -6 5 -13 10 -16 6 -3 10 1 10 9 0 9 -4 16 -10 16 -5 0
-10 -4 -10 -9z"/>
<path d="M2080 1408 c0 -5 26 -7 58 -7 61 1 55 6 -15 11 -24 2 -43 0 -43 -4z"/>
<path d="M2720 1408 c0 -4 24 -7 53 -7 54 1 49 5 -15 11 -21 2 -38 0 -38 -4z"/>
<path d="M1553 1403 c9 -2 25 -2 35 0 9 3 1 5 -18 5 -19 0 -27 -2 -17 -5z"/>
<path d="M1718 1403 c18 -2 45 -2 60 0 15 2 0 4 -33 4 -33 0 -45 -2 -27 -4z"/>
<path d="M2643 1352 c-45 -3 -53 -6 -53 -23 0 -17 7 -19 65 -19 61 0 65 1 65
23 0 13 -6 23 -12 23 -7 -1 -37 -2 -65 -4z"/>
<path d="M1800 1342 c-6 -2 -10 -80 -10 -198 l0 -194 73 2 c64 3 72 5 72 23 0
17 -8 20 -47 23 l-48 3 0 74 0 74 42 3 c33 2 44 8 46 22 3 16 -1 18 -27 14
-18 -3 -34 -1 -37 4 -3 5 -10 6 -15 3 -5 -4 -9 16 -9 44 l0 50 48 3 c39 3 47
6 50 25 3 20 -2 21 -63 25 -36 1 -70 2 -75 0z"/>
<path d="M1260 1145 l0 -195 71 0 c67 0 70 1 67 23 -2 18 -10 23 -45 25 l-43
3 0 75 0 74 39 0 c22 0 43 5 46 11 12 18 0 23 -67 28 -15 1 -18 11 -18 51 l0
50 50 0 c47 0 50 2 50 25 0 24 -2 25 -75 25 l-75 0 0 -195z"/>
<path d="M1516 1321 c-14 -16 -16 -41 -14 -192 3 -166 4 -174 23 -174 19 0 20
8 23 168 l2 167 40 0 40 0 0 -170 0 -170 25 0 25 0 0 179 c0 175 -1 180 -22
195 -33 23 -120 21 -142 -3z"/>
<path d="M2030 1145 l0 -195 25 2 c25 2 25 3 25 95 l0 93 34 0 c40 0 46 -13
46 -110 0 -67 11 -93 36 -83 21 8 20 180 -1 203 -14 15 -14 18 0 30 10 8 15
31 15 71 0 73 -16 86 -112 88 l-68 1 0 -195z m130 111 c0 -61 -9 -76 -46 -76
l-34 0 0 53 0 54 40 0 c38 0 40 -2 40 -31z"/>
<path d="M2342 1324 c-21 -15 -22 -21 -22 -181 0 -191 0 -192 87 -193 71 0 83
14 83 101 0 38 1 72 3 77 1 4 -15 8 -35 10 -33 3 -38 0 -38 -17 0 -12 4 -21 9
-21 6 0 10 -22 9 -50 l0 -50 -34 0 -34 0 0 145 0 145 35 0 c34 0 35 -1 35 -41
0 -36 2 -40 23 -37 32 4 37 78 8 107 -26 26 -96 28 -129 5z"/>
<path d="M2827 1322 c-15 -16 -17 -45 -17 -196 l0 -177 23 3 c20 3 22 9 25 79
l3 76 34 1 35 1 0 -79 c0 -79 0 -80 25 -80 l25 0 0 181 c0 209 0 208 -86 209
-37 0 -55 -5 -67 -18z m103 -97 l0 -65 -35 0 -35 0 0 65 0 65 35 0 35 0 0 -65z"/>
<path d="M2587 1263 c-14 -13 -6 -33 13 -33 19 0 20 -7 20 -120 0 -113 -1
-120 -20 -120 -13 0 -20 -7 -20 -20 0 -18 7 -20 68 -20 61 0 68 2 69 20 1 14
-4 20 -18 20 -18 0 -19 8 -19 120 0 113 1 120 20 120 13 0 20 7 20 20 0 18 -7
20 -63 20 -35 0 -67 -3 -70 -7z"/>
<path d="M1659 928 c11 -15 41 -15 41 -1 0 3 -6 3 -14 0 -7 -3 -20 0 -27 6
-11 10 -11 9 0 -5z"/>
<path d="M1488 903 c7 -3 16 -2 19 1 4 3 -2 6 -13 5 -11 0 -14 -3 -6 -6z"/>
<path d="M1556 892 c-2 -4 -1 -14 5 -22 7 -12 9 -10 9 8 0 23 -5 28 -14 14z"/>
<path d="M2010 890 c0 -5 5 -10 11 -10 5 0 7 5 4 10 -3 6 -8 10 -11 10 -2 0
-4 -4 -4 -10z"/>
<path d="M2102 847 c-2 -43 -5 -56 -14 -51 -10 5 -10 4 -1 -6 19 -21 24 -7 20
56 l-3 59 -2 -58z"/>
<path d="M2285 890 c3 -5 8 -10 11 -10 2 0 4 5 4 10 0 6 -5 10 -11 10 -5 0 -7
-4 -4 -10z"/>
<path d="M2503 855 c0 -22 2 -30 4 -17 2 12 2 30 0 40 -3 9 -5 -1 -4 -23z"/>
<path d="M2523 840 c0 -30 2 -43 4 -27 2 15 2 39 0 55 -2 15 -4 2 -4 -28z"/>
<path d="M1830 831 c0 -28 4 -52 8 -55 4 -2 8 20 7 50 0 30 -3 54 -7 54 -5 0
-8 -22 -8 -49z"/>
<path d="M1898 850 c-3 -16 -1 -30 4 -30 4 0 8 14 8 30 0 17 -2 30 -4 30 -2 0
-6 -13 -8 -30z"/>
<path d="M3002 840 c0 -14 2 -19 5 -12 2 6 2 18 0 25 -3 6 -5 1 -5 -13z"/>
<path d="M1740 840 c-13 -8 -12 -10 3 -10 9 0 17 5 17 10 0 12 -1 12 -20 0z"/>
<path d="M2865 829 c-4 -6 -5 -12 -2 -15 2 -3 7 2 10 11 7 17 1 20 -8 4z"/>
<path d="M1455 820 c3 -5 11 -10 16 -10 6 0 7 5 4 10 -3 6 -11 10 -16 10 -6 0
-7 -4 -4 -10z"/>
<path d="M1652 810 c0 -14 2 -19 5 -12 2 6 2 18 0 25 -3 6 -5 1 -5 -13z"/>
<path d="M2250 820 c0 -5 5 -10 10 -10 6 0 10 5 10 10 0 6 -4 10 -10 10 -5 0
-10 -4 -10 -10z"/>
<path d="M2310 821 c0 -5 5 -13 10 -16 6 -3 10 -2 10 4 0 5 -4 13 -10 16 -5 3
-10 2 -10 -4z"/>
<path d="M2340 825 c0 -5 5 -17 10 -25 5 -8 10 -10 10 -5 0 6 -5 17 -10 25 -5
8 -10 11 -10 5z"/>
<path d="M2452 810 c0 -14 2 -19 5 -12 2 6 2 18 0 25 -3 6 -5 1 -5 -13z"/>
<path d="M1527 801 c-4 -17 -3 -21 5 -13 5 5 8 16 6 23 -3 8 -7 3 -11 -10z"/>
<path d="M2698 773 c7 -3 16 -2 19 1 4 3 -2 6 -13 5 -11 0 -14 -3 -6 -6z"/>
<path d="M2928 773 c6 -2 18 -2 25 0 6 3 1 5 -13 5 -14 0 -19 -2 -12 -5z"/>
<path d="M2345 760 c-3 -5 -1 -10 4 -10 6 0 11 5 11 10 0 6 -2 10 -4 10 -3 0
-8 -4 -11 -10z"/>
<path d="M2568 753 c7 -3 16 -2 19 1 4 3 -2 6 -13 5 -11 0 -14 -3 -6 -6z"/>
<path d="M1265 571 c-3 -5 -3 -99 0 -208 5 -186 6 -199 26 -215 27 -23 116
-24 147 -2 22 15 22 19 22 225 l0 210 -27 -3 -28 -3 -3 -192 -2 -193 -35 0
-35 0 0 195 0 195 -29 0 c-17 0 -32 -4 -36 -9z"/>
<path d="M1625 555 c-25 -24 -25 -26 -25 -212 0 -103 4 -194 9 -201 4 -8 19
-12 32 -10 27 3 25 -17 29 246 l2 143 31 -3 32 -3 3 -192 2 -193 25 0 25 0 0
195 0 195 35 0 35 0 0 -188 c0 -194 4 -214 41 -205 18 5 19 17 19 214 0 203 0
208 -22 223 -36 25 -94 21 -113 -8 l-16 -24 -24 24 c-33 33 -87 33 -120 -1z"/>
<path d="M2093 565 c-21 -14 -23 -25 -23 -94 l0 -79 65 -41 65 -40 0 -61 0
-60 -39 0 c-40 0 -40 0 -43 43 -3 38 -6 42 -30 45 -27 3 -28 1 -28 -40 0 -69
9 -86 47 -99 47 -15 123 -6 140 17 8 11 13 48 13 102 0 95 0 94 -82 137 -47
25 -48 26 -48 75 l0 50 35 0 c32 0 35 -2 35 -31 0 -27 3 -30 28 -27 23 3 27 8
29 38 4 54 -17 73 -84 78 -42 2 -64 -1 -80 -13z"/>
<path d="M2423 568 c-32 -15 -36 -50 -28 -255 l7 -184 27 3 26 3 3 193 2 192
40 0 c22 0 39 -3 39 -7 -1 -5 -1 -92 0 -195 l1 -188 35 0 35 0 0 200 c0 200 0
201 -25 225 -20 21 -33 25 -82 24 -32 0 -68 -5 -80 -11z"/>
<path d="M2750 355 l0 -225 30 0 30 0 0 100 0 100 40 0 40 0 0 -100 0 -100 30
0 30 0 0 225 0 225 -30 0 -30 0 0 -96 c0 -56 -4 -93 -9 -89 -5 3 -12 1 -15 -3
-3 -5 -17 -7 -31 -4 -25 4 -25 6 -25 98 l0 94 -30 0 -30 0 0 -225z"/>
</g>
</svg>
